<svg width="313" height="324" viewBox="0 0 313 324" fill="none" xmlns="http://www.w3.org/2000/svg">
<rect width="312" height="324" rx="18" fill="white"/>
<path d="M12 218.5L1.5 229L0 230V306.5C0 319.3 11.3333 323.167 17 323.5H292C308 323.5 312 312.5 312 307L311.5 162L303.5 154L291 180.5L286 165.5L274 183.5L268.5 192L263.5 218.5H240L231 192L219.5 174.5L209 180.5C207 188.5 202.7 205.6 201.5 210C200.3 214.4 177 217.5 165.5 218.5L160 195L110.5 210L93.5 192C93.8333 198 94.3 210 93.5 210C92.7 210 83.5 220.667 79 226L64.5 210L49 198.5V204.5C42.1667 212.667 27.6 230 24 234C20.4 238 17.8333 232.333 17 229L12 218.5Z" fill="url(#paint0_linear_1_171)"/>
<path d="M1.5 229L12 218.5L17 229C17.8333 232.333 20.4 238 24 234C27.6 230 42.1667 212.667 49 204.5V198.5L64.5 210L79 226C83.5 220.667 92.7 210 93.5 210C94.3 210 93.8333 198 93.5 192L110.5 210L160 195L165.5 218.5C177 217.5 200.3 214.4 201.5 210C202.7 205.6 207 188.5 209 180.5L219.5 174.5L231 192L240 218.5H263.5L268.5 192L274 183.5L286 165.5L291 180.5L303.5 154L311.5 162" stroke="#448C74" stroke-width="2"/>
<path d="M33.5682 105.909V76.8182H35.4318V105.909H33.5682ZM38.9432 86.125C38.8371 85.1326 38.3902 84.3598 37.6023 83.8068C36.822 83.2538 35.8068 82.9773 34.5568 82.9773C33.678 82.9773 32.9242 83.1098 32.2955 83.375C31.6667 83.6402 31.1856 84 30.8523 84.4545C30.5189 84.9091 30.3485 85.428 30.3409 86.0114C30.3409 86.4962 30.4508 86.9167 30.6705 87.2727C30.8977 87.6288 31.2045 87.9318 31.5909 88.1818C31.9773 88.4242 32.4053 88.6288 32.875 88.7955C33.3447 88.9621 33.8182 89.1023 34.2955 89.2159L36.4773 89.7614C37.3561 89.9659 38.2008 90.2424 39.0114 90.5909C39.8295 90.9394 40.5606 91.3788 41.2045 91.9091C41.8561 92.4394 42.3712 93.0795 42.75 93.8295C43.1288 94.5795 43.3182 95.4583 43.3182 96.4659C43.3182 97.8295 42.9697 99.0303 42.2727 100.068C41.5758 101.098 40.5682 101.905 39.25 102.489C37.9394 103.064 36.3523 103.352 34.4886 103.352C32.678 103.352 31.1061 103.072 29.7727 102.511C28.447 101.951 27.4091 101.133 26.6591 100.057C25.9167 98.9811 25.5152 97.6705 25.4545 96.125H29.6023C29.6629 96.9356 29.9129 97.6098 30.3523 98.1477C30.7917 98.6856 31.3636 99.0871 32.0682 99.3523C32.7803 99.6174 33.5758 99.75 34.4545 99.75C35.3712 99.75 36.1742 99.6136 36.8636 99.3409C37.5606 99.0606 38.1061 98.6742 38.5 98.1818C38.8939 97.6818 39.0947 97.0985 39.1023 96.4318C39.0947 95.8258 38.9167 95.3258 38.5682 94.9318C38.2197 94.5303 37.7311 94.197 37.1023 93.9318C36.4811 93.6591 35.7538 93.4167 34.9205 93.2045L32.2727 92.5227C30.3561 92.0303 28.8409 91.2841 27.7273 90.2841C26.6212 89.2765 26.0682 87.9394 26.0682 86.2727C26.0682 84.9015 26.4394 83.7008 27.1818 82.6705C27.9318 81.6402 28.9508 80.8409 30.2386 80.2727C31.5265 79.697 32.9848 79.4091 34.6136 79.4091C36.2652 79.4091 37.7121 79.697 38.9545 80.2727C40.2045 80.8409 41.1856 81.6326 41.8977 82.6477C42.6098 83.6553 42.9773 84.8144 43 86.125H38.9432ZM63.0597 103.318C61.3703 103.318 59.8703 103.034 58.5597 102.466C57.2566 101.898 56.2339 101.121 55.4915 100.136C54.7566 99.1439 54.393 98.0189 54.4006 96.7614C54.393 95.7841 54.6051 94.8864 55.0369 94.0682C55.4688 93.25 56.0521 92.5682 56.7869 92.0227C57.5294 91.4697 58.3551 91.1174 59.2642 90.9659V90.8068C58.0672 90.5417 57.0975 89.9318 56.3551 88.9773C55.6203 88.0152 55.2566 86.9053 55.2642 85.6477C55.2566 84.4508 55.59 83.3826 56.2642 82.4432C56.9384 81.5038 57.8627 80.7652 59.0369 80.2273C60.2112 79.6818 61.5521 79.4091 63.0597 79.4091C64.5521 79.4091 65.8816 79.6818 67.0483 80.2273C68.2225 80.7652 69.1468 81.5038 69.821 82.4432C70.5028 83.3826 70.8438 84.4508 70.8438 85.6477C70.8438 86.9053 70.4688 88.0152 69.7188 88.9773C68.9763 89.9318 68.018 90.5417 66.8438 90.8068V90.9659C67.7528 91.1174 68.571 91.4697 69.2983 92.0227C70.0331 92.5682 70.6165 93.25 71.0483 94.0682C71.4877 94.8864 71.7074 95.7841 71.7074 96.7614C71.7074 98.0189 71.3362 99.1439 70.5938 100.136C69.8513 101.121 68.8286 101.898 67.5256 102.466C66.2301 103.034 64.7415 103.318 63.0597 103.318ZM63.0597 100.068C63.9309 100.068 64.6884 99.9205 65.3324 99.625C65.9763 99.322 66.4763 98.8977 66.8324 98.3523C67.1884 97.8068 67.3703 97.178 67.3778 96.4659C67.3703 95.7235 67.1771 95.0682 66.7983 94.5C66.4271 93.9242 65.9157 93.4735 65.2642 93.1477C64.6203 92.822 63.8854 92.6591 63.0597 92.6591C62.2263 92.6591 61.4839 92.822 60.8324 93.1477C60.1809 93.4735 59.6657 93.9242 59.2869 94.5C58.9157 95.0682 58.7339 95.7235 58.7415 96.4659C58.7339 97.178 58.9081 97.8068 59.2642 98.3523C59.6203 98.8902 60.1203 99.3106 60.7642 99.6136C61.4157 99.9167 62.1809 100.068 63.0597 100.068ZM63.0597 89.4659C63.7718 89.4659 64.4006 89.322 64.946 89.0341C65.4991 88.7462 65.9347 88.3447 66.2528 87.8295C66.571 87.3144 66.7339 86.7197 66.7415 86.0455C66.7339 85.3788 66.5748 84.7955 66.2642 84.2955C65.9536 83.7879 65.5218 83.3977 64.9688 83.125C64.4157 82.8447 63.7794 82.7045 63.0597 82.7045C62.3248 82.7045 61.6771 82.8447 61.1165 83.125C60.5634 83.3977 60.1316 83.7879 59.821 84.2955C59.518 84.7955 59.3703 85.3788 59.3778 86.0455C59.3703 86.7197 59.5218 87.3144 59.8324 87.8295C60.1506 88.3371 60.5862 88.7386 61.1392 89.0341C61.6998 89.322 62.34 89.4659 63.0597 89.4659ZM79.6307 99.8182L79.483 101.068C79.3769 102.023 79.1875 102.992 78.9148 103.977C78.6496 104.97 78.3693 105.883 78.0739 106.716C77.7784 107.549 77.5398 108.205 77.358 108.682H74.5852C74.6913 108.22 74.8352 107.591 75.017 106.795C75.2064 106 75.3883 105.106 75.5625 104.114C75.7367 103.121 75.8542 102.114 75.9148 101.091L75.9943 99.8182H79.6307ZM92.0028 103.318C90.4877 103.318 89.1316 103.034 87.9347 102.466C86.7377 101.89 85.7869 101.102 85.0824 100.102C84.3854 99.1023 84.0142 97.9583 83.9688 96.6705H88.0597C88.1354 97.625 88.5483 98.4053 89.2983 99.0114C90.0483 99.6098 90.9498 99.9091 92.0028 99.9091C92.8286 99.9091 93.5634 99.7197 94.2074 99.3409C94.8513 98.9621 95.3589 98.4356 95.7301 97.7614C96.1013 97.0871 96.2831 96.3182 96.2756 95.4545C96.2831 94.5758 96.0975 93.7955 95.7188 93.1136C95.34 92.4318 94.821 91.8977 94.1619 91.5114C93.5028 91.1174 92.7453 90.9205 91.8892 90.9205C91.1922 90.9129 90.5066 91.0417 89.8324 91.3068C89.1581 91.572 88.6241 91.9205 88.2301 92.3523L84.4233 91.7273L85.6392 79.7273H99.1392V83.25H89.1278L88.4574 89.4205H88.5938C89.0256 88.9129 89.6354 88.4924 90.4233 88.1591C91.2112 87.8182 92.0748 87.6477 93.0142 87.6477C94.4233 87.6477 95.6809 87.9811 96.7869 88.6477C97.893 89.3068 98.7642 90.2159 99.4006 91.375C100.037 92.5341 100.355 93.8598 100.355 95.3523C100.355 96.8902 99.9991 98.2614 99.2869 99.4659C98.5824 100.663 97.6013 101.606 96.3438 102.295C95.0938 102.977 93.6468 103.318 92.0028 103.318ZM104.162 103V99.9545L112.241 92.0341C113.014 91.2538 113.658 90.5606 114.173 89.9545C114.688 89.3485 115.075 88.7614 115.332 88.1932C115.59 87.625 115.719 87.0189 115.719 86.375C115.719 85.6402 115.552 85.0114 115.219 84.4886C114.885 83.9583 114.427 83.5492 113.844 83.2614C113.26 82.9735 112.598 82.8295 111.855 82.8295C111.09 82.8295 110.42 82.9886 109.844 83.3068C109.268 83.6174 108.821 84.0606 108.503 84.6364C108.192 85.2121 108.037 85.8977 108.037 86.6932H104.026C104.026 85.2159 104.363 83.9318 105.037 82.8409C105.711 81.75 106.639 80.9053 107.821 80.3068C109.01 79.7083 110.374 79.4091 111.912 79.4091C113.473 79.4091 114.844 79.7008 116.026 80.2841C117.207 80.8674 118.124 81.6667 118.776 82.6818C119.435 83.697 119.764 84.8561 119.764 86.1591C119.764 87.0303 119.598 87.8864 119.264 88.7273C118.931 89.5682 118.344 90.5 117.503 91.5227C116.67 92.5455 115.499 93.7841 113.991 95.2386L109.98 99.3182V99.4773H120.116V103H104.162ZM127.832 97.5227L127.821 92.5568H128.48L134.753 85.5455H139.56L131.844 94.1364H130.991L127.832 97.5227ZM124.082 103V79.7273H128.196V103H124.082ZM135.037 103L129.355 95.0568L132.128 92.1591L139.957 103H135.037Z" fill="#293241"/>
<path d="M25.5852 43V29.9091H33.4858V31.3153H27.1705V35.7386H33.0767V37.1449H27.1705V41.5938H33.5881V43H25.5852ZM37.2635 33.1818L39.6158 37.196L41.968 33.1818H43.7067L40.5362 38.0909L43.7067 43H41.968L39.6158 39.1903L37.2635 43H35.5249L38.6442 38.0909L35.5249 33.1818H37.2635ZM49.4435 43.2045C48.5231 43.2045 47.7305 42.9872 47.0657 42.5526C46.4009 42.1179 45.8896 41.5192 45.5316 40.7564C45.1737 39.9936 44.9947 39.1222 44.9947 38.142C44.9947 37.1449 45.1779 36.2649 45.5444 35.5021C45.9151 34.7351 46.4308 34.1364 47.0913 33.706C47.756 33.2713 48.5316 33.054 49.418 33.054C50.1083 33.054 50.7305 33.1818 51.2844 33.4375C51.8384 33.6932 52.2923 34.0511 52.646 34.5114C52.9996 34.9716 53.2191 35.5085 53.3043 36.1222H51.7958C51.6808 35.6747 51.4251 35.2784 51.0288 34.9332C50.6367 34.5838 50.1083 34.4091 49.4435 34.4091C48.8555 34.4091 48.3398 34.5625 47.8967 34.8693C47.4577 35.1719 47.1147 35.6001 46.8675 36.1541C46.6246 36.7038 46.5032 37.3494 46.5032 38.0909C46.5032 38.8494 46.6225 39.5099 46.8612 40.0724C47.104 40.6349 47.445 41.0717 47.8839 41.3828C48.3271 41.6939 48.8469 41.8494 49.4435 41.8494C49.8356 41.8494 50.1914 41.7812 50.511 41.6449C50.8306 41.5085 51.1012 41.3125 51.3228 41.0568C51.5444 40.8011 51.7021 40.4943 51.7958 40.1364H53.3043C53.2191 40.7159 53.0082 41.2379 52.6715 41.7024C52.3391 42.1626 51.8981 42.5291 51.3484 42.8018C50.8029 43.0703 50.168 43.2045 49.4435 43.2045ZM59.6261 43.2045C58.68 43.2045 57.864 42.9957 57.1779 42.5781C56.4961 42.1562 55.9698 41.5682 55.5991 40.8139C55.2326 40.0554 55.0494 39.1733 55.0494 38.1676C55.0494 37.1619 55.2326 36.2756 55.5991 35.5085C55.9698 34.7372 56.4854 34.1364 57.146 33.706C57.8107 33.2713 58.5863 33.054 59.4727 33.054C59.984 33.054 60.489 33.1392 60.9876 33.3097C61.4862 33.4801 61.94 33.7571 62.3491 34.1406C62.7582 34.5199 63.0842 35.0227 63.3271 35.6491C63.57 36.2756 63.6914 37.0469 63.6914 37.9631V38.6023H56.1232V37.2983H62.1573C62.1573 36.7443 62.0465 36.25 61.8249 35.8153C61.6076 35.3807 61.2965 35.0376 60.8917 34.7862C60.4911 34.5348 60.0181 34.4091 59.4727 34.4091C58.8718 34.4091 58.3519 34.5582 57.913 34.8565C57.4783 35.1506 57.1438 35.5341 56.9094 36.0071C56.6751 36.4801 56.5579 36.9872 56.5579 37.5284V38.3977C56.5579 39.1392 56.6857 39.7678 56.9414 40.2834C57.2013 40.7947 57.5614 41.1847 58.0217 41.4531C58.4819 41.7173 59.0167 41.8494 59.6261 41.8494C60.0224 41.8494 60.3803 41.794 60.6999 41.6832C61.0238 41.5682 61.3029 41.3977 61.5373 41.1719C61.7717 40.9418 61.9528 40.6562 62.0806 40.3153L63.538 40.7244C63.3846 41.2188 63.1268 41.6534 62.7646 42.0284C62.4023 42.3991 61.9549 42.6889 61.4222 42.8977C60.8896 43.1023 60.2908 43.2045 59.6261 43.2045ZM65.9862 46.6818V33.1818H67.4435V34.7415H67.6225C67.7333 34.571 67.8867 34.3537 68.0827 34.0895C68.283 33.821 68.5685 33.5824 68.9393 33.3736C69.3143 33.1605 69.8214 33.054 70.4606 33.054C71.2873 33.054 72.016 33.2607 72.6467 33.674C73.2773 34.0874 73.7695 34.6733 74.1232 35.4318C74.4769 36.1903 74.6538 37.0852 74.6538 38.1165C74.6538 39.1562 74.4769 40.0575 74.1232 40.8203C73.7695 41.5788 73.2795 42.1669 72.6531 42.5845C72.0266 42.9979 71.3043 43.2045 70.4862 43.2045C69.8555 43.2045 69.3505 43.1001 68.9712 42.8913C68.592 42.6783 68.3001 42.4375 68.0955 42.169C67.891 41.8963 67.7333 41.6705 67.6225 41.4915H67.4947V46.6818H65.9862ZM67.4691 38.0909C67.4691 38.8324 67.5778 39.4865 67.7951 40.0533C68.0124 40.6158 68.3299 41.0568 68.7475 41.3764C69.1651 41.6918 69.6765 41.8494 70.2816 41.8494C70.9123 41.8494 71.4386 41.6832 71.8604 41.3509C72.2866 41.0142 72.6062 40.5625 72.8192 39.9957C73.0366 39.4247 73.1452 38.7898 73.1452 38.0909C73.1452 37.4006 73.0387 36.7784 72.8256 36.2244C72.6168 35.6662 72.2994 35.2251 71.8732 34.9013C71.4513 34.5732 70.9208 34.4091 70.2816 34.4091C69.668 34.4091 69.1523 34.5646 68.7347 34.8757C68.3171 35.1825 68.0018 35.6129 67.7887 36.1669C67.5756 36.7166 67.4691 37.358 67.4691 38.0909ZM81.2248 33.1818V34.4602H76.1367V33.1818H81.2248ZM77.6197 30.8295H79.1282V40.1875C79.1282 40.6136 79.19 40.9332 79.3136 41.1463C79.4414 41.3551 79.6033 41.4957 79.7994 41.5682C79.9996 41.6364 80.2106 41.6705 80.4322 41.6705C80.5984 41.6705 80.7347 41.6619 80.8413 41.6449C80.9478 41.6236 81.033 41.6065 81.0969 41.5938L81.4038 42.9489C81.3015 42.9872 81.1587 43.0256 80.9755 43.0639C80.7923 43.1065 80.56 43.1278 80.2788 43.1278C79.8526 43.1278 79.435 43.0362 79.0259 42.853C78.6211 42.6697 78.2844 42.3906 78.016 42.0156C77.7518 41.6406 77.6197 41.1676 77.6197 40.5966V30.8295ZM87.505 43.2045C86.5589 43.2045 85.7429 42.9957 85.0568 42.5781C84.375 42.1562 83.8487 41.5682 83.478 40.8139C83.1115 40.0554 82.9283 39.1733 82.9283 38.1676C82.9283 37.1619 83.1115 36.2756 83.478 35.5085C83.8487 34.7372 84.3643 34.1364 85.0249 33.706C85.6896 33.2713 86.4652 33.054 87.3516 33.054C87.8629 33.054 88.3679 33.1392 88.8665 33.3097C89.3651 33.4801 89.8189 33.7571 90.228 34.1406C90.6371 34.5199 90.9631 35.0227 91.206 35.6491C91.4489 36.2756 91.5703 37.0469 91.5703 37.9631V38.6023H84.0021V37.2983H90.0362C90.0362 36.7443 89.9254 36.25 89.7038 35.8153C89.4865 35.3807 89.1754 35.0376 88.7706 34.7862C88.37 34.5348 87.897 34.4091 87.3516 34.4091C86.7507 34.4091 86.2308 34.5582 85.7919 34.8565C85.3572 35.1506 85.0227 35.5341 84.7884 36.0071C84.554 36.4801 84.4368 36.9872 84.4368 37.5284V38.3977C84.4368 39.1392 84.5646 39.7678 84.8203 40.2834C85.0803 40.7947 85.4403 41.1847 85.9006 41.4531C86.3608 41.7173 86.8956 41.8494 87.505 41.8494C87.9013 41.8494 88.2592 41.794 88.5788 41.6832C88.9027 41.5682 89.1818 41.3977 89.4162 41.1719C89.6506 40.9418 89.8317 40.6562 89.9595 40.3153L91.4169 40.7244C91.2635 41.2188 91.0057 41.6534 90.6435 42.0284C90.2813 42.3991 89.8338 42.6889 89.3011 42.8977C88.7685 43.1023 88.1697 43.2045 87.505 43.2045ZM97.5724 43.2045C96.7543 43.2045 96.032 42.9979 95.4055 42.5845C94.7791 42.1669 94.2891 41.5788 93.9354 40.8203C93.5817 40.0575 93.4048 39.1562 93.4048 38.1165C93.4048 37.0852 93.5817 36.1903 93.9354 35.4318C94.2891 34.6733 94.7813 34.0874 95.4119 33.674C96.0426 33.2607 96.7713 33.054 97.598 33.054C98.2372 33.054 98.7422 33.1605 99.1129 33.3736C99.4879 33.5824 99.7734 33.821 99.9695 34.0895C100.17 34.3537 100.325 34.571 100.436 34.7415H100.564V29.9091H102.072V43H100.615V41.4915H100.436C100.325 41.6705 100.168 41.8963 99.9631 42.169C99.7585 42.4375 99.4666 42.6783 99.0874 42.8913C98.7081 43.1001 98.2031 43.2045 97.5724 43.2045ZM97.777 41.8494C98.3821 41.8494 98.8935 41.6918 99.3111 41.3764C99.7287 41.0568 100.046 40.6158 100.263 40.0533C100.481 39.4865 100.589 38.8324 100.589 38.0909C100.589 37.358 100.483 36.7166 100.27 36.1669C100.057 35.6129 99.7415 35.1825 99.3239 34.8757C98.9063 34.5646 98.3906 34.4091 97.777 34.4091C97.1378 34.4091 96.6051 34.5732 96.179 34.9013C95.7571 35.2251 95.4396 35.6662 95.2266 36.2244C95.0178 36.7784 94.9134 37.4006 94.9134 38.0909C94.9134 38.7898 95.0199 39.4247 95.233 39.9957C95.4503 40.5625 95.7699 41.0142 96.1918 41.3509C96.6179 41.6832 97.1463 41.8494 97.777 41.8494ZM110.312 43V29.9091H118.212V31.3153H111.897V35.7386H117.803V37.1449H111.897V41.5938H118.315V43H110.312ZM123.754 43.2301C123.132 43.2301 122.567 43.1129 122.06 42.8786C121.553 42.6399 121.151 42.2969 120.852 41.8494C120.554 41.3977 120.405 40.8523 120.405 40.2131C120.405 39.6506 120.516 39.1946 120.737 38.8452C120.959 38.4915 121.255 38.2145 121.626 38.0142C121.996 37.8139 122.406 37.6648 122.853 37.5668C123.305 37.4645 123.759 37.3835 124.214 37.3239C124.811 37.2472 125.295 37.1896 125.665 37.1513C126.04 37.1087 126.313 37.0384 126.484 36.9403C126.658 36.8423 126.746 36.6719 126.746 36.429V36.3778C126.746 35.7472 126.573 35.2571 126.228 34.9077C125.887 34.5582 125.369 34.3835 124.675 34.3835C123.955 34.3835 123.39 34.5412 122.981 34.8565C122.572 35.1719 122.284 35.5085 122.118 35.8665L120.686 35.3551C120.942 34.7585 121.283 34.294 121.709 33.9616C122.139 33.625 122.608 33.3906 123.115 33.2585C123.626 33.1222 124.129 33.054 124.624 33.054C124.939 33.054 125.301 33.0923 125.71 33.169C126.124 33.2415 126.522 33.3928 126.906 33.6229C127.293 33.853 127.615 34.2003 127.871 34.6648C128.126 35.1293 128.254 35.7514 128.254 36.5312V43H126.746V41.6705H126.669C126.567 41.8835 126.396 42.1115 126.158 42.3544C125.919 42.5973 125.602 42.804 125.205 42.9744C124.809 43.1449 124.325 43.2301 123.754 43.2301ZM123.984 41.875C124.581 41.875 125.084 41.7578 125.493 41.5234C125.906 41.2891 126.217 40.9865 126.426 40.6158C126.639 40.245 126.746 39.8551 126.746 39.446V38.0653C126.682 38.142 126.541 38.2124 126.324 38.2763C126.111 38.3359 125.864 38.3892 125.582 38.4361C125.305 38.4787 125.035 38.517 124.771 38.5511C124.511 38.581 124.3 38.6065 124.138 38.6278C123.746 38.679 123.379 38.7621 123.038 38.8771C122.702 38.9879 122.429 39.1562 122.22 39.3821C122.016 39.6037 121.913 39.9062 121.913 40.2898C121.913 40.8139 122.107 41.2102 122.495 41.4787C122.887 41.7429 123.384 41.875 123.984 41.875ZM131.008 43V33.1818H132.465V34.6648H132.567C132.746 34.179 133.07 33.7848 133.539 33.4822C134.008 33.1797 134.536 33.0284 135.124 33.0284C135.235 33.0284 135.373 33.0305 135.54 33.0348C135.706 33.0391 135.831 33.0455 135.917 33.054V34.5881C135.866 34.5753 135.748 34.5561 135.565 34.5305C135.386 34.5007 135.197 34.4858 134.996 34.4858C134.519 34.4858 134.093 34.5859 133.718 34.7862C133.347 34.9822 133.053 35.255 132.836 35.6044C132.623 35.9496 132.516 36.3437 132.516 36.7869V43H131.008ZM139.213 37.0938V43H137.705V33.1818H139.162V34.7159H139.29C139.52 34.2173 139.87 33.8168 140.338 33.5142C140.807 33.2074 141.412 33.054 142.154 33.054C142.819 33.054 143.4 33.1903 143.899 33.4631C144.397 33.7315 144.785 34.1406 145.062 34.6903C145.339 35.2358 145.478 35.9261 145.478 36.7614V43H143.969V36.8636C143.969 36.0923 143.769 35.4915 143.368 35.0611C142.968 34.6264 142.418 34.4091 141.719 34.4091C141.238 34.4091 140.807 34.5135 140.428 34.7223C140.053 34.9311 139.757 35.2358 139.539 35.6364C139.322 36.0369 139.213 36.5227 139.213 37.0938ZM148.234 43V33.1818H149.743V43H148.234ZM149.001 31.5455C148.707 31.5455 148.454 31.4453 148.241 31.245C148.032 31.0447 147.927 30.804 147.927 30.5227C147.927 30.2415 148.032 30.0007 148.241 29.8004C148.454 29.6001 148.707 29.5 149.001 29.5C149.295 29.5 149.547 29.6001 149.756 29.8004C149.969 30.0007 150.075 30.2415 150.075 30.5227C150.075 30.804 149.969 31.0447 149.756 31.245C149.547 31.4453 149.295 31.5455 149.001 31.5455ZM154.014 37.0938V43H152.506V33.1818H153.963V34.7159H154.091C154.321 34.2173 154.67 33.8168 155.139 33.5142C155.608 33.2074 156.213 33.054 156.955 33.054C157.619 33.054 158.201 33.1903 158.7 33.4631C159.198 33.7315 159.586 34.1406 159.863 34.6903C160.14 35.2358 160.278 35.9261 160.278 36.7614V43H158.77V36.8636C158.77 36.0923 158.57 35.4915 158.169 35.0611C157.768 34.6264 157.219 34.4091 156.52 34.4091C156.038 34.4091 155.608 34.5135 155.229 34.7223C154.854 34.9311 154.558 35.2358 154.34 35.6364C154.123 36.0369 154.014 36.5227 154.014 37.0938ZM166.998 46.8864C166.269 46.8864 165.643 46.7926 165.119 46.6051C164.595 46.4219 164.158 46.179 163.808 45.8764C163.463 45.5781 163.188 45.2585 162.984 44.9176L164.186 44.0739C164.322 44.2528 164.494 44.4574 164.703 44.6875C164.912 44.9219 165.198 45.1243 165.56 45.2947C165.926 45.4695 166.406 45.5568 166.998 45.5568C167.791 45.5568 168.445 45.3651 168.96 44.9815C169.476 44.598 169.734 43.9972 169.734 43.179V41.1847H169.606C169.495 41.3636 169.338 41.5852 169.133 41.8494C168.933 42.1094 168.643 42.3416 168.264 42.5462C167.889 42.7464 167.382 42.8466 166.742 42.8466C165.95 42.8466 165.238 42.6591 164.607 42.2841C163.981 41.9091 163.485 41.3636 163.118 40.6477C162.756 39.9318 162.575 39.0625 162.575 38.0398C162.575 37.0341 162.752 36.1584 163.105 35.4126C163.459 34.6626 163.951 34.0831 164.582 33.674C165.213 33.2607 165.941 33.054 166.768 33.054C167.407 33.054 167.914 33.1605 168.289 33.3736C168.669 33.5824 168.958 33.821 169.159 34.0895C169.363 34.3537 169.521 34.571 169.632 34.7415H169.785V33.1818H171.242V43.2812C171.242 44.125 171.051 44.8111 170.667 45.3395C170.288 45.8722 169.776 46.2621 169.133 46.5092C168.494 46.7607 167.782 46.8864 166.998 46.8864ZM166.947 41.4915C167.552 41.4915 168.063 41.353 168.481 41.076C168.899 40.799 169.216 40.4006 169.433 39.8807C169.651 39.3608 169.759 38.7386 169.759 38.0142C169.759 37.3068 169.653 36.6825 169.44 36.1413C169.227 35.6001 168.911 35.1761 168.494 34.8693C168.076 34.5625 167.561 34.4091 166.947 34.4091C166.308 34.4091 165.775 34.571 165.349 34.8949C164.927 35.2187 164.61 35.6534 164.396 36.1989C164.188 36.7443 164.083 37.3494 164.083 38.0142C164.083 38.696 164.19 39.299 164.403 39.8232C164.62 40.343 164.94 40.7521 165.362 41.0504C165.788 41.3445 166.316 41.4915 166.947 41.4915Z" fill="#545B67"/>
<rect x="24" y="127" width="74" height="29" rx="8" fill="#448C74"/>
<path d="M40.0568 145.21V138.648H41.1705V145.21H40.0568ZM37.3324 142.486V141.372H43.8949V142.486H37.3324ZM45.804 147V146.105L49.1648 142.426C49.5592 141.995 49.884 141.621 50.1392 141.303C50.3944 140.981 50.5833 140.679 50.706 140.398C50.8319 140.113 50.8949 139.814 50.8949 139.503C50.8949 139.145 50.8087 138.835 50.6364 138.573C50.4673 138.311 50.2353 138.109 49.9403 137.967C49.6454 137.824 49.3139 137.753 48.946 137.753C48.5549 137.753 48.2135 137.834 47.9219 137.996C47.6335 138.156 47.4098 138.379 47.2507 138.668C47.0949 138.956 47.017 139.294 47.017 139.682H45.8438C45.8438 139.085 45.9813 138.562 46.2564 138.111C46.5315 137.66 46.906 137.309 47.38 137.057C47.8572 136.805 48.3925 136.679 48.9858 136.679C49.5824 136.679 50.111 136.805 50.5717 137.057C51.0324 137.309 51.3937 137.648 51.6555 138.076C51.9174 138.504 52.0483 138.979 52.0483 139.503C52.0483 139.877 51.9804 140.244 51.8445 140.602C51.7119 140.956 51.4799 141.352 51.1484 141.79C50.8203 142.224 50.3646 142.754 49.7812 143.381L47.4943 145.827V145.906H52.2273V147H45.804ZM53.8232 144.912V143.898L58.2976 136.818H59.0334V138.389H58.5362L55.1555 143.739V143.818H61.1811V144.912H53.8232ZM58.6158 147V144.604V144.131V136.818H59.7891V147H58.6158ZM63.4407 147.08C63.1954 147.08 62.985 146.992 62.8093 146.816C62.6336 146.64 62.5458 146.43 62.5458 146.185C62.5458 145.939 62.6336 145.729 62.8093 145.553C62.985 145.378 63.1954 145.29 63.4407 145.29C63.686 145.29 63.8964 145.378 64.0721 145.553C64.2478 145.729 64.3356 145.939 64.3356 146.185C64.3356 146.347 64.2942 146.496 64.2113 146.632C64.1317 146.768 64.024 146.877 63.8881 146.96C63.7556 147.04 63.6064 147.08 63.4407 147.08ZM69.3979 147.139C68.8146 147.139 68.2892 147.023 67.8219 146.791C67.3546 146.559 66.9801 146.241 66.6983 145.837C66.4166 145.432 66.2625 144.972 66.236 144.455H67.4292C67.4756 144.915 67.6844 145.296 68.0556 145.598C68.4301 145.896 68.8775 146.045 69.3979 146.045C69.8155 146.045 70.1867 145.948 70.5115 145.752C70.8397 145.557 71.0965 145.288 71.2821 144.947C71.4711 144.602 71.5655 144.213 71.5655 143.778C71.5655 143.334 71.4677 142.938 71.2722 142.59C71.08 142.239 70.8148 141.962 70.4767 141.76C70.1387 141.558 69.7525 141.455 69.3184 141.452C69.0068 141.448 68.687 141.496 68.3588 141.596C68.0307 141.692 67.7606 141.816 67.5485 141.969L66.3951 141.83L67.0115 136.818H72.3013V137.912H68.0456L67.6877 140.915H67.7473C67.9561 140.749 68.218 140.612 68.5328 140.502C68.8477 140.393 69.1758 140.338 69.5172 140.338C70.1403 140.338 70.6955 140.487 71.1827 140.786C71.6732 141.08 72.0577 141.485 72.3361 141.999C72.6178 142.512 72.7587 143.099 72.7587 143.759C72.7587 144.408 72.6129 144.988 72.3212 145.499C72.0328 146.006 71.6351 146.407 71.128 146.702C70.6209 146.993 70.0442 147.139 69.3979 147.139ZM79.924 145.091V144.554C79.924 144.183 80.0002 143.843 80.1527 143.535C80.3085 143.223 80.5339 142.975 80.8288 142.789C81.1271 142.6 81.4884 142.506 81.9126 142.506C82.3435 142.506 82.7048 142.6 82.9964 142.789C83.2881 142.975 83.5085 143.223 83.6577 143.535C83.8068 143.843 83.8814 144.183 83.8814 144.554V145.091C83.8814 145.462 83.8052 145.804 83.6527 146.115C83.5036 146.423 83.2815 146.672 82.9865 146.861C82.6948 147.046 82.3369 147.139 81.9126 147.139C81.4818 147.139 81.1188 147.046 80.8239 146.861C80.5289 146.672 80.3052 146.423 80.1527 146.115C80.0002 145.804 79.924 145.462 79.924 145.091ZM80.9382 144.554V145.091C80.9382 145.399 81.0111 145.676 81.157 145.921C81.3028 146.163 81.5547 146.284 81.9126 146.284C82.2607 146.284 82.5059 146.163 82.6484 145.921C82.7943 145.676 82.8672 145.399 82.8672 145.091V144.554C82.8672 144.246 82.7976 143.971 82.6584 143.729C82.5192 143.483 82.2706 143.361 81.9126 143.361C81.5646 143.361 81.3144 143.483 81.1619 143.729C81.0128 143.971 80.9382 144.246 80.9382 144.554ZM74.853 139.264V138.727C74.853 138.356 74.9292 138.016 75.0817 137.708C75.2375 137.397 75.4628 137.148 75.7578 136.962C76.0561 136.773 76.4174 136.679 76.8416 136.679C77.2725 136.679 77.6338 136.773 77.9254 136.962C78.2171 137.148 78.4375 137.397 78.5866 137.708C78.7358 138.016 78.8104 138.356 78.8104 138.727V139.264C78.8104 139.635 78.7341 139.977 78.5817 140.288C78.4325 140.597 78.2105 140.845 77.9155 141.034C77.6238 141.22 77.2659 141.312 76.8416 141.312C76.4107 141.312 76.0478 141.22 75.7528 141.034C75.4579 140.845 75.2341 140.597 75.0817 140.288C74.9292 139.977 74.853 139.635 74.853 139.264ZM75.8672 138.727V139.264C75.8672 139.572 75.9401 139.849 76.0859 140.094C76.2318 140.336 76.4837 140.457 76.8416 140.457C77.1896 140.457 77.4349 140.336 77.5774 140.094C77.7232 139.849 77.7962 139.572 77.7962 139.264V138.727C77.7962 138.419 77.7266 138.144 77.5874 137.902C77.4482 137.657 77.1996 137.534 76.8416 137.534C76.4936 137.534 76.2434 137.657 76.0909 137.902C75.9418 138.144 75.8672 138.419 75.8672 138.727ZM75.2308 147L82.2308 136.818H83.3643L76.3643 147H75.2308Z" fill="white"/>
<defs>
<linearGradient id="paint0_linear_1_171" x1="156" y1="107.5" x2="161" y2="319.5" gradientUnits="userSpaceOnUse">
<stop stop-color="#448C74" stop-opacity="0.5"/>
<stop offset="1" stop-color="#448C74" stop-opacity="0"/>
</linearGradient>
</defs>
</svg>
