<svg width="312" height="315" viewBox="0 0 312 315" fill="none" xmlns="http://www.w3.org/2000/svg">
<rect width="312" height="315" rx="18" fill="white"/>
<rect x="19" y="154" width="42" height="145" rx="15" fill="#EAEBEC"/>
<rect x="19" y="227" width="42" height="72" rx="15" fill="#EDCB50"/>
<rect x="77" y="154" width="42" height="145" rx="15" fill="#EAEBEC"/>
<rect x="77" y="211" width="42" height="88" rx="15" fill="#EDCB50"/>
<rect x="135" y="154" width="42" height="145" rx="15" fill="#EAEBEC"/>
<rect x="135" y="232" width="42" height="67" rx="15" fill="#EDCB50"/>
<rect x="193" y="154" width="42" height="145" rx="15" fill="#EAEBEC"/>
<rect x="193" y="208" width="42" height="91" rx="15" fill="#EDCB50"/>
<rect x="251" y="154" width="42" height="145" rx="15" fill="#EAEBEC"/>
<rect x="251" y="186" width="42" height="113" rx="15" fill="#EDCB50"/>
<path d="M34.3409 92.3182C32.6515 92.3182 31.1515 92.0341 29.8409 91.4659C28.5379 90.8977 27.5152 90.1212 26.7727 89.1364C26.0379 88.1439 25.6742 87.0189 25.6818 85.7614C25.6742 84.7841 25.8864 83.8864 26.3182 83.0682C26.75 82.25 27.3333 81.5682 28.0682 81.0227C28.8106 80.4697 29.6364 80.1174 30.5455 79.9659V79.8068C29.3485 79.5417 28.3788 78.9318 27.6364 77.9773C26.9015 77.0152 26.5379 75.9053 26.5455 74.6477C26.5379 73.4508 26.8712 72.3826 27.5455 71.4432C28.2197 70.5038 29.1439 69.7652 30.3182 69.2273C31.4924 68.6818 32.8333 68.4091 34.3409 68.4091C35.8333 68.4091 37.1629 68.6818 38.3295 69.2273C39.5038 69.7652 40.428 70.5038 41.1023 71.4432C41.7841 72.3826 42.125 73.4508 42.125 74.6477C42.125 75.9053 41.75 77.0152 41 77.9773C40.2576 78.9318 39.2992 79.5417 38.125 79.8068V79.9659C39.0341 80.1174 39.8523 80.4697 40.5795 81.0227C41.3144 81.5682 41.8977 82.25 42.3295 83.0682C42.7689 83.8864 42.9886 84.7841 42.9886 85.7614C42.9886 87.0189 42.6174 88.1439 41.875 89.1364C41.1326 90.1212 40.1098 90.8977 38.8068 91.4659C37.5114 92.0341 36.0227 92.3182 34.3409 92.3182ZM34.3409 89.0682C35.2121 89.0682 35.9697 88.9205 36.6136 88.625C37.2576 88.322 37.7576 87.8977 38.1136 87.3523C38.4697 86.8068 38.6515 86.178 38.6591 85.4659C38.6515 84.7235 38.4583 84.0682 38.0795 83.5C37.7083 82.9242 37.197 82.4735 36.5455 82.1477C35.9015 81.822 35.1667 81.6591 34.3409 81.6591C33.5076 81.6591 32.7652 81.822 32.1136 82.1477C31.4621 82.4735 30.947 82.9242 30.5682 83.5C30.197 84.0682 30.0152 84.7235 30.0227 85.4659C30.0152 86.178 30.1894 86.8068 30.5455 87.3523C30.9015 87.8902 31.4015 88.3106 32.0455 88.6136C32.697 88.9167 33.4621 89.0682 34.3409 89.0682ZM34.3409 78.4659C35.053 78.4659 35.6818 78.322 36.2273 78.0341C36.7803 77.7462 37.2159 77.3447 37.5341 76.8295C37.8523 76.3144 38.0152 75.7197 38.0227 75.0455C38.0152 74.3788 37.8561 73.7955 37.5455 73.2955C37.2348 72.7879 36.803 72.3977 36.25 72.125C35.697 71.8447 35.0606 71.7045 34.3409 71.7045C33.6061 71.7045 32.9583 71.8447 32.3977 72.125C31.8447 72.3977 31.4129 72.7879 31.1023 73.2955C30.7992 73.7955 30.6515 74.3788 30.6591 75.0455C30.6515 75.7197 30.803 76.3144 31.1136 76.8295C31.4318 77.3371 31.8674 77.7386 32.4205 78.0341C32.9811 78.322 33.6212 78.4659 34.3409 78.4659ZM50.9119 88.8182L50.7642 90.0682C50.6581 91.0227 50.4688 91.9924 50.196 92.9773C49.9309 93.9697 49.6506 94.8826 49.3551 95.7159C49.0597 96.5492 48.821 97.2045 48.6392 97.6818H45.8665C45.9725 97.2197 46.1165 96.5909 46.2983 95.7955C46.4877 95 46.6695 94.1061 46.8438 93.1136C47.018 92.1212 47.1354 91.1136 47.196 90.0909L47.2756 88.8182H50.9119ZM63.2841 92.3182C61.7689 92.3182 60.4129 92.0341 59.2159 91.4659C58.0189 90.8902 57.0682 90.1023 56.3636 89.1023C55.6667 88.1023 55.2955 86.9583 55.25 85.6705H59.3409C59.4167 86.625 59.8295 87.4053 60.5795 88.0114C61.3295 88.6098 62.2311 88.9091 63.2841 88.9091C64.1098 88.9091 64.8447 88.7197 65.4886 88.3409C66.1326 87.9621 66.6402 87.4356 67.0114 86.7614C67.3826 86.0871 67.5644 85.3182 67.5568 84.4545C67.5644 83.5758 67.3788 82.7955 67 82.1136C66.6212 81.4318 66.1023 80.8977 65.4432 80.5114C64.7841 80.1174 64.0265 79.9205 63.1705 79.9205C62.4735 79.9129 61.7879 80.0417 61.1136 80.3068C60.4394 80.572 59.9053 80.9205 59.5114 81.3523L55.7045 80.7273L56.9205 68.7273H70.4205V72.25H60.4091L59.7386 78.4205H59.875C60.3068 77.9129 60.9167 77.4924 61.7045 77.1591C62.4924 76.8182 63.3561 76.6477 64.2955 76.6477C65.7045 76.6477 66.9621 76.9811 68.0682 77.6477C69.1742 78.3068 70.0455 79.2159 70.6818 80.375C71.3182 81.5341 71.6364 82.8598 71.6364 84.3523C71.6364 85.8902 71.2803 87.2614 70.5682 88.4659C69.8636 89.6629 68.8826 90.6061 67.625 91.2955C66.375 91.9773 64.928 92.3182 63.2841 92.3182ZM75.4432 92V88.9545L83.5227 81.0341C84.2955 80.2538 84.9394 79.5606 85.4545 78.9545C85.9697 78.3485 86.3561 77.7614 86.6136 77.1932C86.8712 76.625 87 76.0189 87 75.375C87 74.6402 86.8333 74.0114 86.5 73.4886C86.1667 72.9583 85.7083 72.5492 85.125 72.2614C84.5417 71.9735 83.8788 71.8295 83.1364 71.8295C82.3712 71.8295 81.7008 71.9886 81.125 72.3068C80.5492 72.6174 80.1023 73.0606 79.7841 73.6364C79.4735 74.2121 79.3182 74.8977 79.3182 75.6932H75.3068C75.3068 74.2159 75.6439 72.9318 76.3182 71.8409C76.9924 70.75 77.9205 69.9053 79.1023 69.3068C80.2917 68.7083 81.6553 68.4091 83.1932 68.4091C84.7538 68.4091 86.125 68.7008 87.3068 69.2841C88.4886 69.8674 89.4053 70.6667 90.0568 71.6818C90.7159 72.697 91.0455 73.8561 91.0455 75.1591C91.0455 76.0303 90.8788 76.8864 90.5455 77.7273C90.2121 78.5682 89.625 79.5 88.7841 80.5227C87.9508 81.5455 86.7803 82.7841 85.2727 84.2386L81.2614 88.3182V88.4773H91.3977V92H75.4432ZM99.1136 86.5227L99.1023 81.5568H99.7614L106.034 74.5455H110.841L103.125 83.1364H102.273L99.1136 86.5227ZM95.3636 92V68.7273H99.4773V92H95.3636ZM106.318 92L100.636 84.0568L103.409 81.1591L111.239 92H106.318Z" fill="#293241"/>
<path d="M35.6591 31.9091C35.5568 31.0455 35.142 30.375 34.4148 29.8977C33.6875 29.4205 32.7955 29.1818 31.7386 29.1818C30.9659 29.1818 30.2898 29.3068 29.7102 29.5568C29.1364 29.8068 28.6875 30.1506 28.3636 30.5881C28.0455 31.0256 27.8864 31.5227 27.8864 32.0795C27.8864 32.5455 27.9972 32.946 28.2188 33.2812C28.446 33.6108 28.7358 33.8864 29.0881 34.108C29.4403 34.3239 29.8097 34.5028 30.196 34.6449C30.5824 34.7812 30.9375 34.892 31.2614 34.9773L33.0341 35.4545C33.4886 35.5739 33.9943 35.7386 34.5511 35.9489C35.1136 36.1591 35.6506 36.446 36.1619 36.8097C36.679 37.1676 37.1051 37.6278 37.4403 38.1903C37.7756 38.7528 37.9432 39.4432 37.9432 40.2614C37.9432 41.2045 37.696 42.0568 37.2017 42.8182C36.7131 43.5795 35.9972 44.1847 35.054 44.6335C34.1165 45.0824 32.9773 45.3068 31.6364 45.3068C30.3864 45.3068 29.304 45.1051 28.3892 44.7017C27.4801 44.2983 26.7642 43.7358 26.2415 43.0142C25.7244 42.2926 25.4318 41.4545 25.3636 40.5H27.5455C27.6023 41.1591 27.8239 41.7045 28.2102 42.1364C28.6023 42.5625 29.0966 42.8807 29.6932 43.0909C30.2955 43.2955 30.9432 43.3977 31.6364 43.3977C32.4432 43.3977 33.1676 43.267 33.8097 43.0057C34.4517 42.7386 34.9602 42.3693 35.3352 41.8977C35.7102 41.4205 35.8977 40.8636 35.8977 40.2273C35.8977 39.6477 35.7358 39.1761 35.4119 38.8125C35.0881 38.4489 34.6619 38.1534 34.1335 37.9261C33.6051 37.6989 33.0341 37.5 32.4205 37.3295L30.2727 36.7159C28.9091 36.3239 27.8295 35.7642 27.0341 35.0369C26.2386 34.3097 25.8409 33.358 25.8409 32.1818C25.8409 31.2045 26.1051 30.3523 26.6335 29.625C27.1676 28.892 27.8835 28.3239 28.7812 27.9205C29.6847 27.5114 30.6932 27.3068 31.8068 27.3068C32.9318 27.3068 33.9318 27.5085 34.8068 27.9119C35.6818 28.3097 36.375 28.8551 36.8864 29.5483C37.4034 30.2415 37.6761 31.0284 37.7045 31.9091H35.6591ZM46.0888 45.2727C44.9979 45.2727 44.0348 44.9972 43.1996 44.446C42.3643 43.8892 41.7109 43.1051 41.2393 42.0938C40.7678 41.0767 40.532 39.875 40.532 38.4886C40.532 37.1136 40.7678 35.9205 41.2393 34.9091C41.7109 33.8977 42.3672 33.1165 43.2081 32.5653C44.049 32.0142 45.0206 31.7386 46.1229 31.7386C46.9751 31.7386 47.6484 31.8807 48.1428 32.1648C48.6428 32.4432 49.0234 32.7614 49.2848 33.1193C49.5518 33.4716 49.7592 33.7614 49.907 33.9886H50.0774V27.5455H52.0888V45H50.1456V42.9886H49.907C49.7592 43.2273 49.549 43.5284 49.2763 43.892C49.0036 44.25 48.6143 44.571 48.1087 44.8551C47.603 45.1335 46.9297 45.2727 46.0888 45.2727ZM46.3615 43.4659C47.1683 43.4659 47.8501 43.2557 48.407 42.8352C48.9638 42.4091 49.3871 41.821 49.6768 41.071C49.9666 40.3153 50.1115 39.4432 50.1115 38.4545C50.1115 37.4773 49.9695 36.6222 49.6854 35.8892C49.4013 35.1506 48.9808 34.5767 48.424 34.1676C47.8672 33.7528 47.1797 33.5455 46.3615 33.5455C45.5092 33.5455 44.799 33.7642 44.2308 34.2017C43.6683 34.6335 43.245 35.2216 42.9609 35.9659C42.6825 36.7045 42.5433 37.5341 42.5433 38.4545C42.5433 39.3864 42.6854 40.233 42.9695 40.9943C43.2592 41.75 43.6854 42.3523 44.2479 42.8011C44.8161 43.2443 45.5206 43.4659 46.3615 43.4659ZM61.8814 31.9091V33.6136H54.8246V31.9091H61.8814ZM56.9382 45V30.1023C56.9382 29.3523 57.1143 28.7273 57.4666 28.2273C57.8189 27.7273 58.2763 27.3523 58.8388 27.1023C59.4013 26.8523 59.995 26.7273 60.62 26.7273C61.1143 26.7273 61.5178 26.767 61.8303 26.8466C62.1428 26.9261 62.3757 27 62.5291 27.0682L61.9496 28.8068C61.8473 28.7727 61.7053 28.7301 61.5234 28.679C61.3473 28.6278 61.1143 28.6023 60.8246 28.6023C60.1598 28.6023 59.6797 28.7699 59.3842 29.1051C59.0945 29.4403 58.9496 29.9318 58.9496 30.5795V45H56.9382ZM64.7003 45V31.9091H66.7116V45H64.7003ZM65.723 29.7273C65.331 29.7273 64.9929 29.5938 64.7088 29.3267C64.4304 29.0597 64.2912 28.7386 64.2912 28.3636C64.2912 27.9886 64.4304 27.6676 64.7088 27.4006C64.9929 27.1335 65.331 27 65.723 27C66.1151 27 66.4503 27.1335 66.7287 27.4006C67.0128 27.6676 67.1548 27.9886 67.1548 28.3636C67.1548 28.7386 67.0128 29.0597 66.7287 29.3267C66.4503 29.5938 66.1151 29.7273 65.723 29.7273ZM74.2479 45.3068C73.4183 45.3068 72.6655 45.1506 71.9893 44.8381C71.3132 44.5199 70.7763 44.0625 70.3786 43.4659C69.9808 42.8636 69.782 42.1364 69.782 41.2841C69.782 40.5341 69.9297 39.9261 70.2251 39.4602C70.5206 38.9886 70.9155 38.6193 71.4098 38.3523C71.9041 38.0852 72.4496 37.8864 73.0462 37.7557C73.6484 37.6193 74.2536 37.5114 74.8615 37.4318C75.657 37.3295 76.3018 37.2528 76.7962 37.2017C77.2962 37.1449 77.6598 37.0511 77.8871 36.9205C78.12 36.7898 78.2365 36.5625 78.2365 36.2386V36.1705C78.2365 35.3295 78.0064 34.6761 77.5462 34.2102C77.0916 33.7443 76.4013 33.5114 75.4751 33.5114C74.5149 33.5114 73.7621 33.7216 73.2166 34.142C72.6712 34.5625 72.2876 35.0114 72.0661 35.4886L70.157 34.8068C70.4979 34.0114 70.9524 33.392 71.5206 32.9489C72.0945 32.5 72.7195 32.1875 73.3956 32.0114C74.0774 31.8295 74.7479 31.7386 75.407 31.7386C75.8274 31.7386 76.3104 31.7898 76.8558 31.892C77.407 31.9886 77.9382 32.1903 78.4496 32.4972C78.9666 32.804 79.3956 33.267 79.7365 33.8864C80.0774 34.5057 80.2479 35.3352 80.2479 36.375V45H78.2365V43.2273H78.1342C77.9979 43.5114 77.7706 43.8153 77.4524 44.1392C77.1342 44.4631 76.7109 44.7386 76.1825 44.9659C75.6541 45.1932 75.0092 45.3068 74.2479 45.3068ZM74.5547 43.5C75.3501 43.5 76.0206 43.3438 76.5661 43.0312C77.1172 42.7188 77.532 42.3153 77.8104 41.821C78.0945 41.3267 78.2365 40.8068 78.2365 40.2614V38.4205C78.1513 38.5227 77.9638 38.6165 77.674 38.7017C77.3899 38.7812 77.0604 38.8523 76.6854 38.9148C76.3161 38.9716 75.9553 39.0227 75.603 39.0682C75.2564 39.108 74.9751 39.142 74.7592 39.1705C74.2365 39.2386 73.7479 39.3494 73.2933 39.5028C72.8445 39.6506 72.4808 39.875 72.2024 40.1761C71.9297 40.4716 71.7933 40.875 71.7933 41.3864C71.7933 42.0852 72.0518 42.6136 72.5689 42.9716C73.0916 43.3239 73.7536 43.5 74.5547 43.5ZM104.783 27.5455V45H102.737L93.2259 31.2955H93.0554V45H90.9418V27.5455H92.9872L102.533 41.2841H102.703V27.5455H104.783ZM112.592 45.3068C111.762 45.3068 111.009 45.1506 110.333 44.8381C109.657 44.5199 109.12 44.0625 108.722 43.4659C108.325 42.8636 108.126 42.1364 108.126 41.2841C108.126 40.5341 108.273 39.9261 108.569 39.4602C108.864 38.9886 109.259 38.6193 109.754 38.3523C110.248 38.0852 110.793 37.8864 111.39 37.7557C111.992 37.6193 112.597 37.5114 113.205 37.4318C114.001 37.3295 114.646 37.2528 115.14 37.2017C115.64 37.1449 116.004 37.0511 116.231 36.9205C116.464 36.7898 116.58 36.5625 116.58 36.2386V36.1705C116.58 35.3295 116.35 34.6761 115.89 34.2102C115.435 33.7443 114.745 33.5114 113.819 33.5114C112.859 33.5114 112.106 33.7216 111.56 34.142C111.015 34.5625 110.631 35.0114 110.41 35.4886L108.501 34.8068C108.842 34.0114 109.296 33.392 109.864 32.9489C110.438 32.5 111.063 32.1875 111.739 32.0114C112.421 31.8295 113.092 31.7386 113.751 31.7386C114.171 31.7386 114.654 31.7898 115.2 31.892C115.751 31.9886 116.282 32.1903 116.793 32.4972C117.31 32.804 117.739 33.267 118.08 33.8864C118.421 34.5057 118.592 35.3352 118.592 36.375V45H116.58V43.2273H116.478C116.342 43.5114 116.114 43.8153 115.796 44.1392C115.478 44.4631 115.055 44.7386 114.526 44.9659C113.998 45.1932 113.353 45.3068 112.592 45.3068ZM112.898 43.5C113.694 43.5 114.364 43.3438 114.91 43.0312C115.461 42.7188 115.876 42.3153 116.154 41.821C116.438 41.3267 116.58 40.8068 116.58 40.2614V38.4205C116.495 38.5227 116.308 38.6165 116.018 38.7017C115.734 38.7812 115.404 38.8523 115.029 38.9148C114.66 38.9716 114.299 39.0227 113.947 39.0682C113.6 39.108 113.319 39.142 113.103 39.1705C112.58 39.2386 112.092 39.3494 111.637 39.5028C111.188 39.6506 110.825 39.875 110.546 40.1761C110.273 40.4716 110.137 40.875 110.137 41.3864C110.137 42.0852 110.396 42.6136 110.913 42.9716C111.435 43.3239 112.097 43.5 112.898 43.5ZM131.536 34.8409L129.729 35.3523C129.615 35.0511 129.447 34.7585 129.226 34.4744C129.01 34.1847 128.714 33.946 128.339 33.7585C127.964 33.571 127.484 33.4773 126.899 33.4773C126.098 33.4773 125.43 33.6619 124.896 34.0312C124.368 34.3949 124.104 34.858 124.104 35.4205C124.104 35.9205 124.286 36.3153 124.649 36.6051C125.013 36.8949 125.581 37.1364 126.354 37.3295L128.297 37.8068C129.467 38.0909 130.339 38.5256 130.913 39.1108C131.487 39.6903 131.774 40.4375 131.774 41.3523C131.774 42.1023 131.558 42.7727 131.126 43.3636C130.7 43.9545 130.104 44.4205 129.337 44.7614C128.57 45.1023 127.678 45.2727 126.661 45.2727C125.325 45.2727 124.22 44.983 123.345 44.4034C122.47 43.8239 121.916 42.9773 121.683 41.8636L123.592 41.3864C123.774 42.0909 124.118 42.6193 124.624 42.9716C125.135 43.3239 125.803 43.5 126.626 43.5C127.564 43.5 128.308 43.3011 128.859 42.9034C129.416 42.5 129.695 42.017 129.695 41.4545C129.695 41 129.536 40.6193 129.217 40.3125C128.899 40 128.411 39.767 127.751 39.6136L125.57 39.1023C124.371 38.8182 123.49 38.3778 122.928 37.7812C122.371 37.179 122.092 36.4261 122.092 35.5227C122.092 34.7841 122.3 34.1307 122.714 33.5625C123.135 32.9943 123.706 32.5483 124.428 32.2244C125.155 31.9006 125.979 31.7386 126.899 31.7386C128.195 31.7386 129.212 32.0227 129.95 32.5909C130.695 33.1591 131.223 33.9091 131.536 34.8409ZM139.745 45.2727C138.654 45.2727 137.691 44.9972 136.856 44.446C136.021 43.8892 135.367 43.1051 134.896 42.0938C134.424 41.0767 134.188 39.875 134.188 38.4886C134.188 37.1136 134.424 35.9205 134.896 34.9091C135.367 33.8977 136.023 33.1165 136.864 32.5653C137.705 32.0142 138.677 31.7386 139.779 31.7386C140.631 31.7386 141.305 31.8807 141.799 32.1648C142.299 32.4432 142.68 32.7614 142.941 33.1193C143.208 33.4716 143.415 33.7614 143.563 33.9886H143.734V27.5455H145.745V45H143.802V42.9886H143.563C143.415 43.2273 143.205 43.5284 142.933 43.892C142.66 44.25 142.271 44.571 141.765 44.8551C141.259 45.1335 140.586 45.2727 139.745 45.2727ZM140.018 43.4659C140.825 43.4659 141.506 43.2557 142.063 42.8352C142.62 42.4091 143.043 41.821 143.333 41.071C143.623 40.3153 143.768 39.4432 143.768 38.4545C143.768 37.4773 143.626 36.6222 143.342 35.8892C143.058 35.1506 142.637 34.5767 142.08 34.1676C141.523 33.7528 140.836 33.5455 140.018 33.5455C139.165 33.5455 138.455 33.7642 137.887 34.2017C137.325 34.6335 136.901 35.2216 136.617 35.9659C136.339 36.7045 136.2 37.5341 136.2 38.4545C136.2 39.3864 136.342 40.233 136.626 40.9943C136.915 41.75 137.342 42.3523 137.904 42.8011C138.472 43.2443 139.177 43.4659 140.018 43.4659ZM149.708 45V31.9091H151.651V33.9545H151.822C152.094 33.2557 152.535 32.7131 153.143 32.3267C153.751 31.9347 154.481 31.7386 155.333 31.7386C156.197 31.7386 156.915 31.9347 157.489 32.3267C158.069 32.7131 158.521 33.2557 158.844 33.9545H158.981C159.316 33.2784 159.819 32.7415 160.489 32.3438C161.16 31.9403 161.964 31.7386 162.901 31.7386C164.072 31.7386 165.029 32.1051 165.773 32.8381C166.518 33.5653 166.89 34.6989 166.89 36.2386V45H164.879V36.2386C164.879 35.2727 164.614 34.5824 164.086 34.1676C163.558 33.7528 162.935 33.5455 162.219 33.5455C161.299 33.5455 160.586 33.8239 160.08 34.3807C159.575 34.9318 159.322 35.6307 159.322 36.4773V45H157.276V36.0341C157.276 35.2898 157.035 34.6903 156.552 34.2358C156.069 33.7756 155.447 33.5455 154.685 33.5455C154.163 33.5455 153.674 33.6847 153.219 33.9631C152.771 34.2415 152.407 34.6278 152.129 35.1222C151.856 35.6108 151.719 36.1761 151.719 36.8182V45H149.708Z" fill="#545B67"/>
</svg>
