<svg width="312" height="315" viewBox="0 0 312 315" fill="none" xmlns="http://www.w3.org/2000/svg">
<rect width="312" height="315" rx="18" fill="white"/>
<path d="M156 269.802C173.008 269.802 189.792 265.921 205.074 258.456C220.356 250.991 233.733 240.137 244.188 226.721C254.642 213.305 261.898 197.681 265.403 181.038C268.907 164.395 268.569 147.172 264.413 130.68C260.257 114.187 252.392 98.8604 241.419 85.8659C230.446 72.8714 216.652 62.5518 201.088 55.6926C185.525 48.8335 168.601 45.6156 151.606 46.284C134.612 46.9523 117.993 51.4893 103.016 59.5495L121.928 94.6897C131.559 89.5064 142.246 86.5888 153.175 86.159C164.104 85.7292 174.986 87.7985 184.995 92.2094C195.003 96.6203 203.873 103.257 210.93 111.613C217.987 119.969 223.044 129.825 225.717 140.431C228.389 151.037 228.607 162.113 226.353 172.815C224.099 183.518 219.433 193.565 212.711 202.192C205.988 210.819 197.385 217.799 187.558 222.6C177.73 227.401 166.937 229.896 156 229.896L156 269.802Z" fill="#448C74"/>
<path d="M65.1215 223.122C74.7207 236.517 87.1626 247.626 101.557 255.651C115.951 263.676 131.941 268.42 148.383 269.542L151.102 229.729C140.529 229.007 130.246 225.957 120.989 220.796C111.733 215.635 103.732 208.492 97.559 199.878L65.1215 223.122Z" fill="#EDCB50"/>
<path d="M46.1766 137.059C40.8352 165.071 46.3995 194.065 61.7312 218.109L95.3788 196.654C85.5196 181.192 81.9413 162.547 85.3762 144.533L46.1766 137.059Z" fill="#3F7FC9"/>
<path d="M132.341 170.318C130.652 170.318 129.152 170.034 127.841 169.466C126.538 168.898 125.515 168.121 124.773 167.136C124.038 166.144 123.674 165.019 123.682 163.761C123.674 162.784 123.886 161.886 124.318 161.068C124.75 160.25 125.333 159.568 126.068 159.023C126.811 158.47 127.636 158.117 128.545 157.966V157.807C127.348 157.542 126.379 156.932 125.636 155.977C124.902 155.015 124.538 153.905 124.545 152.648C124.538 151.451 124.871 150.383 125.545 149.443C126.22 148.504 127.144 147.765 128.318 147.227C129.492 146.682 130.833 146.409 132.341 146.409C133.833 146.409 135.163 146.682 136.33 147.227C137.504 147.765 138.428 148.504 139.102 149.443C139.784 150.383 140.125 151.451 140.125 152.648C140.125 153.905 139.75 155.015 139 155.977C138.258 156.932 137.299 157.542 136.125 157.807V157.966C137.034 158.117 137.852 158.47 138.58 159.023C139.314 159.568 139.898 160.25 140.33 161.068C140.769 161.886 140.989 162.784 140.989 163.761C140.989 165.019 140.617 166.144 139.875 167.136C139.133 168.121 138.11 168.898 136.807 169.466C135.511 170.034 134.023 170.318 132.341 170.318ZM132.341 167.068C133.212 167.068 133.97 166.92 134.614 166.625C135.258 166.322 135.758 165.898 136.114 165.352C136.47 164.807 136.652 164.178 136.659 163.466C136.652 162.723 136.458 162.068 136.08 161.5C135.708 160.924 135.197 160.473 134.545 160.148C133.902 159.822 133.167 159.659 132.341 159.659C131.508 159.659 130.765 159.822 130.114 160.148C129.462 160.473 128.947 160.924 128.568 161.5C128.197 162.068 128.015 162.723 128.023 163.466C128.015 164.178 128.189 164.807 128.545 165.352C128.902 165.89 129.402 166.311 130.045 166.614C130.697 166.917 131.462 167.068 132.341 167.068ZM132.341 156.466C133.053 156.466 133.682 156.322 134.227 156.034C134.78 155.746 135.216 155.345 135.534 154.83C135.852 154.314 136.015 153.72 136.023 153.045C136.015 152.379 135.856 151.795 135.545 151.295C135.235 150.788 134.803 150.398 134.25 150.125C133.697 149.845 133.061 149.705 132.341 149.705C131.606 149.705 130.958 149.845 130.398 150.125C129.845 150.398 129.413 150.788 129.102 151.295C128.799 151.795 128.652 152.379 128.659 153.045C128.652 153.72 128.803 154.314 129.114 154.83C129.432 155.337 129.867 155.739 130.42 156.034C130.981 156.322 131.621 156.466 132.341 156.466ZM153.077 170.318C151.44 170.318 149.986 170.038 148.713 169.477C147.448 168.917 146.448 168.136 145.713 167.136C144.978 166.136 144.588 164.981 144.543 163.67H148.815C148.853 164.299 149.062 164.848 149.44 165.318C149.819 165.78 150.323 166.14 150.952 166.398C151.58 166.655 152.285 166.784 153.065 166.784C153.899 166.784 154.637 166.64 155.281 166.352C155.925 166.057 156.429 165.648 156.793 165.125C157.156 164.602 157.334 164 157.327 163.318C157.334 162.614 157.152 161.992 156.781 161.455C156.41 160.917 155.872 160.496 155.168 160.193C154.471 159.89 153.63 159.739 152.645 159.739H150.588V156.489H152.645C153.455 156.489 154.164 156.348 154.77 156.068C155.384 155.788 155.865 155.394 156.213 154.886C156.562 154.371 156.732 153.777 156.724 153.102C156.732 152.443 156.584 151.871 156.281 151.386C155.986 150.894 155.565 150.511 155.02 150.239C154.482 149.966 153.849 149.83 153.122 149.83C152.41 149.83 151.751 149.958 151.145 150.216C150.539 150.473 150.05 150.841 149.679 151.318C149.308 151.788 149.111 152.348 149.088 153H145.031C145.062 151.697 145.437 150.553 146.156 149.568C146.884 148.576 147.853 147.803 149.065 147.25C150.277 146.689 151.637 146.409 153.145 146.409C154.698 146.409 156.046 146.701 157.19 147.284C158.342 147.86 159.232 148.636 159.861 149.614C160.49 150.591 160.804 151.67 160.804 152.852C160.812 154.163 160.425 155.261 159.645 156.148C158.872 157.034 157.857 157.614 156.599 157.886V158.068C158.236 158.295 159.49 158.902 160.361 159.886C161.24 160.864 161.675 162.08 161.668 163.534C161.668 164.837 161.296 166.004 160.554 167.034C159.819 168.057 158.804 168.86 157.509 169.443C156.221 170.027 154.743 170.318 153.077 170.318ZM178.011 165.636V164.409C178.011 163.508 178.201 162.678 178.58 161.92C178.966 161.163 179.527 160.553 180.261 160.091C180.996 159.629 181.886 159.398 182.932 159.398C184.008 159.398 184.909 159.629 185.636 160.091C186.364 160.545 186.913 161.152 187.284 161.909C187.663 162.667 187.852 163.5 187.852 164.409V165.636C187.852 166.538 187.663 167.367 187.284 168.125C186.905 168.883 186.348 169.492 185.614 169.955C184.886 170.417 183.992 170.648 182.932 170.648C181.871 170.648 180.973 170.417 180.239 169.955C179.504 169.492 178.947 168.883 178.568 168.125C178.197 167.367 178.011 166.538 178.011 165.636ZM180.977 164.409V165.636C180.977 166.235 181.121 166.784 181.409 167.284C181.697 167.784 182.205 168.034 182.932 168.034C183.667 168.034 184.17 167.788 184.443 167.295C184.723 166.795 184.864 166.242 184.864 165.636V164.409C184.864 163.803 184.731 163.25 184.466 162.75C184.201 162.242 183.689 161.989 182.932 161.989C182.22 161.989 181.716 162.242 181.42 162.75C181.125 163.25 180.977 163.803 180.977 164.409ZM166.182 152.318V151.091C166.182 150.182 166.375 149.348 166.761 148.591C167.148 147.833 167.708 147.227 168.443 146.773C169.178 146.311 170.068 146.08 171.114 146.08C172.182 146.08 173.08 146.311 173.807 146.773C174.542 147.227 175.095 147.833 175.466 148.591C175.837 149.348 176.023 150.182 176.023 151.091V152.318C176.023 153.227 175.833 154.061 175.455 154.818C175.083 155.568 174.53 156.17 173.795 156.625C173.061 157.08 172.167 157.307 171.114 157.307C170.045 157.307 169.144 157.08 168.409 156.625C167.682 156.17 167.129 155.564 166.75 154.807C166.371 154.049 166.182 153.22 166.182 152.318ZM169.17 151.091V152.318C169.17 152.924 169.311 153.477 169.591 153.977C169.879 154.47 170.386 154.716 171.114 154.716C171.841 154.716 172.341 154.47 172.614 153.977C172.894 153.477 173.034 152.924 173.034 152.318V151.091C173.034 150.485 172.902 149.932 172.636 149.432C172.371 148.924 171.864 148.67 171.114 148.67C170.394 148.67 169.89 148.924 169.602 149.432C169.314 149.939 169.17 150.492 169.17 151.091ZM167.477 170L183.477 146.727H186.318L170.318 170H167.477Z" fill="#293241"/>
</svg>
