<svg width="165" height="60" viewBox="0 0 165 60" fill="none" xmlns="http://www.w3.org/2000/svg">
<rect width="60" height="60" rx="30" fill="#293241"/>
<path d="M21.7432 41V22.7422H22.04L26.9756 30.6836V41H21.7432ZM21.7432 18.4375V15.0234H26.0107L38.2568 34.7656V41H35.7705L21.7432 18.4375ZM33.0244 22.5195V15.0234H38.2568V30.4609H37.96L33.0244 22.5195Z" fill="white"/>
<path d="M71.8295 41H76.4275L80.5695 17.516H80.0945L87.6565 41H95.0285L99.5505 15.35H94.9335L90.7725 38.796H91.4185L83.7995 15.35H76.3515L71.8295 41ZM102.583 41H107.162L110.563 21.658H116.89L117.441 18.485H111.114L111.342 17.307C111.57 16.015 112.228 15.1537 113.318 14.723C114.407 14.2923 115.921 14.077 117.859 14.077H118.467L118.98 11.018H118.296C115.066 11.018 112.437 11.493 110.411 12.443C108.384 13.3803 107.168 14.9953 106.763 17.288L106.573 18.485H101.937L101.386 21.658H105.984L102.583 41ZM127.196 41.266C128.69 41.266 130.141 41.1013 131.547 40.772L132.079 37.694C131.141 37.998 130.204 38.15 129.267 38.15C128.253 38.15 127.512 37.941 127.044 37.523C126.575 37.0923 126.461 36.2057 126.702 34.863L129.039 21.677H136.316L136.886 18.485H129.59L130.502 13.374H125.904L125.011 18.485H119.767L119.197 21.677H124.441L121.933 35.927C121.565 37.9663 121.914 39.366 122.978 40.126C124.042 40.886 125.448 41.266 127.196 41.266ZM135.042 41H140.419L148.38 30.265L152.579 41H157.918L152.218 28.308L162.212 15.35H156.854L149.083 26.351L145.188 15.35H139.83L145.226 28.308L135.042 41Z" fill="#293241"/>
</svg>
