<svg width="335" height="363" viewBox="0 0 335 363" fill="none" xmlns="http://www.w3.org/2000/svg">
<path opacity="0.0833333" fill-rule="evenodd" clip-rule="evenodd" d="M12.6676 241.641C-4.28045 258.213 -34.0274 256.536 -56.5836 251.003C-77.9192 245.77 -88.1022 223.412 -106.643 212.377C-125.817 200.967 -152.512 201.751 -167.073 185.249C-182.681 167.56 -188.716 143.122 -188.725 119.354C-188.735 94.4728 -189.596 61.368 -167.126 47.9489C-141.169 32.4477 -107.831 65.1084 -79.6345 54.2063C-55.6991 44.9516 -57.7237 -6.64925 -32.6548 -4.04462C-6.61354 -1.33896 -23.2242 50.7825 -0.43423 62.4351C26.0722 75.9879 66.3986 40.9508 89.9843 58.661C109.426 73.2599 102.405 108.569 89.9697 130.318C77.6192 151.92 40.6781 149.307 26.4142 169.848C11.9131 190.731 31.0106 223.705 12.6676 241.641Z" stroke="url(#paint0_linear_1_248)" stroke-opacity="0.3" stroke-width="1.72076"/>
<path opacity="0.166667" fill-rule="evenodd" clip-rule="evenodd" d="M5.16027 225.609C-13.5637 239.951 -42.7492 234.614 -64.3704 226.341C-84.8215 218.517 -92.2077 195.085 -109.205 181.852C-126.781 168.168 -153.246 165.649 -165.657 147.484C-178.961 128.015 -182.001 103.033 -179.168 79.4596C-176.203 54.7827 -173.096 21.8448 -149.293 11.3116C-121.798 -0.85588 -92.7691 35.6524 -63.6113 28.3225C-38.8597 22.1003 -34.69 -29.3246 -10.2366 -23.6455C15.1653 -17.7461 -7.47589 31.8936 13.6444 46.2645C38.2089 62.979 82.2354 33.2115 103.417 53.6883C120.878 70.5676 109.72 104.718 94.8352 124.752C80.0517 144.65 43.8711 137.496 27.3242 156.106C10.502 175.026 25.4253 210.087 5.16027 225.609Z" stroke="url(#paint1_linear_1_248)" stroke-opacity="0.3" stroke-width="1.72076"/>
<path opacity="0.25" fill-rule="evenodd" clip-rule="evenodd" d="M-0.125756 209.052C-20.3365 220.979 -48.5141 212.094 -68.8699 201.228C-88.1243 190.949 -92.6038 166.793 -107.798 151.574C-123.51 135.835 -149.34 130.081 -159.414 110.533C-170.212 89.5799 -170.214 64.4201 -164.586 41.3801C-158.695 17.2613 -151.671 -15.0362 -126.903 -22.5596C-98.2926 -31.2504 -74.0129 8.54155 -44.3416 4.8549C-19.154 1.72536 -8.86145 -48.7835 14.6024 -40.1417C38.9765 -31.1647 10.6591 15.3015 29.788 32.1571C52.0365 51.7614 99.0839 27.6416 117.541 50.5627C132.755 69.4571 117.636 101.967 100.533 120.014C83.5457 137.938 48.6792 126.391 30.1055 142.82C11.223 159.523 21.7484 196.143 -0.125756 209.052Z" stroke="url(#paint2_linear_1_248)" stroke-opacity="0.3" stroke-width="1.72076"/>
<path opacity="0.333333" fill-rule="evenodd" clip-rule="evenodd" d="M-3.15532 192.247C-24.5451 201.611 -51.2873 189.345 -70.0694 176.07C-87.8351 163.513 -89.3414 138.992 -102.503 122.028C-116.113 104.486 -140.915 95.6149 -148.5 74.9819C-156.63 52.8658 -153.596 27.896 -145.26 5.71883C-136.533 -17.4966 -125.702 -48.6905 -100.345 -53.1263C-71.0543 -58.2504 -51.8901 -15.7883 -22.1562 -15.8164C3.08447 -15.8402 19.3405 -64.7077 41.459 -53.26C64.4355 -41.3683 30.8749 1.28139 47.723 20.3502C67.3186 42.5288 116.671 24.3483 132.123 49.3546C144.861 69.9678 126.013 100.382 106.952 116.199C88.0209 131.909 54.9974 116.183 34.6801 130.215C14.025 144.481 19.9949 182.113 -3.15532 192.247Z" stroke="url(#paint3_linear_1_248)" stroke-opacity="0.3" stroke-width="1.72076"/>
<path opacity="0.416667" fill-rule="evenodd" clip-rule="evenodd" d="M-3.92763 175.473C-26.1748 182.163 -51.0799 166.735 -68.0059 151.273C-84.016 136.648 -82.5268 112.125 -93.4579 93.6859C-104.762 74.6177 -128.164 62.7944 -133.146 41.3918C-138.486 18.4508 -132.461 -5.96401 -121.542 -26.9617C-110.112 -48.9425 -95.6365 -78.5863 -70.072 -79.9033C-40.5411 -81.4247 -26.7799 -36.9463 2.56968 -33.3556C27.4841 -30.3075 49.4587 -76.8333 69.8995 -62.7791C91.1332 -48.1797 52.8342 -9.93137 67.1485 11.046C83.797 35.4442 134.712 23.405 146.928 50.1058C156.998 72.1158 134.705 100.01 113.973 113.39C93.3822 126.679 62.6978 107.051 40.9426 118.507C18.8255 130.153 20.1506 168.231 -3.92763 175.473Z" stroke="url(#paint4_linear_1_248)" stroke-opacity="0.3" stroke-width="1.72076"/>
<path opacity="0.5" fill-rule="evenodd" clip-rule="evenodd" d="M-2.47552 159.003C-25.2494 162.952 -47.947 144.625 -62.7655 127.23C-76.7821 110.777 -72.3195 86.618 -80.8579 66.9941C-89.6875 46.7007 -111.342 32.134 -113.647 10.2886C-116.117 -13.127 -107.191 -36.63 -93.8518 -56.1494C-79.888 -76.5826 -61.9834 -104.253 -36.5913 -102.467C-7.25944 -100.403 0.894122 -54.5923 29.4231 -47.4769C53.6409 -41.4368 81.0073 -84.9554 99.4666 -68.5328C118.642 -51.4732 76.174 -18.1455 87.7416 4.40706C101.196 30.6374 152.917 24.8493 161.715 52.8287C168.968 75.8926 143.561 100.881 121.466 111.652C99.5213 122.35 71.6322 99.1554 48.7623 107.893C25.5121 116.775 22.1728 154.729 -2.47552 159.003Z" stroke="url(#paint5_linear_1_248)" stroke-opacity="0.3" stroke-width="1.72076"/>
<path opacity="0.583333" fill-rule="evenodd" clip-rule="evenodd" d="M1.1343 143.105C-21.8314 144.282 -41.9886 123.365 -54.4823 104.321C-66.2999 86.3072 -58.9302 62.8712 -64.9509 42.3706C-71.177 21.1706 -90.7654 4.10998 -90.3604 -17.8448C-89.9262 -41.3776 -78.2306 -63.6257 -62.6677 -81.3897C-46.3762 -99.9853 -25.3065 -125.288 -0.459898 -120.46C28.2418 -114.882 30.6695 -68.4425 57.9587 -57.9486C81.1241 -49.0405 113.479 -88.9311 129.686 -70.4133C146.521 -51.1773 100.51 -23.2165 109.161 0.554697C119.224 28.2024 170.99 28.6831 176.243 57.5062C180.572 81.2655 152.425 103.004 129.293 111.033C106.318 119.008 81.6331 92.6358 57.985 98.5537C33.9437 104.57 25.9902 141.83 1.1343 143.105Z" stroke="url(#paint6_linear_1_248)" stroke-opacity="0.3" stroke-width="1.72076"/>
<path opacity="0.666667" fill-rule="evenodd" clip-rule="evenodd" d="M6.80425 128.033C-16.0192 126.452 -33.3449 103.289 -43.334 82.9024C-52.7826 63.6188 -42.6155 41.2539 -46.0331 20.1975C-49.5672 -1.57715 -66.8069 -20.8459 -63.6999 -42.5754C-60.3695 -65.8667 -46.0771 -86.5351 -28.5187 -102.292C-10.1383 -118.788 13.7875 -141.364 37.7277 -133.599C65.3824 -124.63 62.0536 -78.2731 87.7073 -64.5961C109.484 -52.9859 146.352 -88.6809 160.073 -68.3717C174.326 -47.2746 125.443 -25.0487 131.055 -0.432931C137.583 28.197 188.642 34.8725 190.275 64.0923C191.621 88.1787 161.146 106.372 137.313 111.566C113.642 116.726 92.5182 87.6102 68.4365 90.6487C43.9543 93.7377 31.5061 129.745 6.80425 128.033Z" stroke="url(#paint7_linear_1_248)" stroke-opacity="0.3" stroke-width="1.72076"/>
<path opacity="0.75" fill-rule="evenodd" clip-rule="evenodd" d="M14.4066 114.029C-7.94608 109.739 -22.1956 84.7091 -29.5405 63.3058C-36.4879 43.0605 -23.6745 22.0994 -24.4442 0.815683C-25.2401 -21.1941 -39.8866 -42.3536 -34.1269 -63.5266C-27.9533 -86.2215 -11.2743 -105.009 8.02325 -118.538C28.2243 -132.7 54.6568 -152.23 77.3473 -141.677C103.558 -129.487 94.5308 -83.924 118.182 -67.305C138.26 -53.1975 179.102 -84.1909 190.144 -62.4194C201.613 -39.8034 150.567 -23.5965 153.065 1.47784C155.969 30.6411 205.587 43.3478 203.582 72.5122C201.93 96.5529 169.57 110.956 145.382 113.265C121.357 115.558 104.092 84.1723 79.9244 84.3133C55.3548 84.4566 38.5989 118.672 14.4066 114.029Z" stroke="url(#paint8_linear_1_248)" stroke-opacity="0.3" stroke-width="1.72076"/>
<path opacity="0.833333" fill-rule="evenodd" clip-rule="evenodd" d="M23.7858 101.313C2.22219 94.4054 -8.756 67.9111 -13.3591 45.8309C-17.7131 24.9455 -2.44398 5.69971 -0.562087 -15.4803C1.384 -37.3828 -10.4672 -60.0893 -2.14462 -80.3834C6.77617 -102.136 25.5966 -118.769 46.3527 -129.88C68.0806 -141.511 96.6349 -157.72 117.755 -144.566C142.152 -129.372 127.57 -85.3004 148.887 -66.0225C166.982 -49.6577 211.205 -75.512 219.417 -52.6277C227.946 -28.8557 175.474 -18.8652 174.829 6.27603C174.079 35.5171 221.55 54.0052 215.947 82.6638C211.329 106.288 177.552 116.712 153.354 116.124C129.32 115.54 116.15 82.3907 92.242 79.6577C67.9364 76.8792 47.1243 108.789 23.7858 101.313Z" stroke="url(#paint9_linear_1_248)" stroke-opacity="0.3" stroke-width="1.72076"/>
<path opacity="0.916667" fill-rule="evenodd" clip-rule="evenodd" d="M34.7621 90.0843C14.2908 80.6865 6.72665 53.1508 4.91969 30.7422C3.21051 9.54609 20.7083 -7.69824 25.2042 -28.4461C29.8535 -49.9017 20.9547 -73.7905 31.7114 -92.8971C43.2414 -113.377 63.9271 -127.612 85.8408 -136.151C108.78 -145.089 139.042 -157.75 158.298 -142.221C180.541 -124.282 160.635 -82.3748 179.324 -60.7577C195.188 -42.4073 242.149 -62.7595 247.425 -39.1266C252.906 -14.5769 199.758 -10.9108 195.993 13.906C191.614 42.7698 236.272 66.708 227.165 94.4193C219.659 117.262 184.95 123.577 161.087 120.123C137.386 116.693 128.481 82.3079 105.172 76.7651C81.4743 71.13 56.9184 100.256 34.7621 90.0843Z" stroke="url(#paint10_linear_1_248)" stroke-opacity="0.3" stroke-width="1.72076"/>
<path fill-rule="evenodd" clip-rule="evenodd" d="M47.1325 80.5182C28.0377 68.7919 23.9762 40.6505 24.9757 18.2648C25.9212 -2.90963 45.3875 -17.8962 52.4195 -37.8912C59.6913 -58.5683 53.8549 -83.2596 66.8802 -100.888C80.8417 -119.784 103.089 -131.415 125.844 -137.264C149.663 -143.387 181.194 -152.325 198.322 -134.677C218.109 -114.289 193.19 -75.1866 209 -51.5819C222.42 -31.5442 271.438 -46.1114 273.72 -22.1028C276.091 2.83694 223.025 0.160837 216.21 24.2684C208.284 52.3074 249.512 81.2887 237.049 107.627C226.776 129.337 191.633 131.468 168.441 125.221C145.407 119.017 140.871 83.9393 118.487 75.6905C95.7304 67.3047 67.7989 93.2096 47.1325 80.5182Z" stroke="url(#paint11_linear_1_248)" stroke-opacity="0.3" stroke-width="1.72076"/>
<defs>
<linearGradient id="paint0_linear_1_248" x1="198.847" y1="225.161" x2="-157.591" y2="-62.351" gradientUnits="userSpaceOnUse">
<stop stop-color="#FFC881"/>
<stop offset="1" stop-color="#DA8517"/>
</linearGradient>
<linearGradient id="paint1_linear_1_248" x1="191.052" y1="232.258" x2="-128.072" y2="-95.5513" gradientUnits="userSpaceOnUse">
<stop stop-color="#FFC881"/>
<stop offset="1" stop-color="#DA8517"/>
</linearGradient>
<linearGradient id="paint2_linear_1_248" x1="182.63" y1="238.51" x2="-94.6654" y2="-124.792" gradientUnits="userSpaceOnUse">
<stop stop-color="#FFC881"/>
<stop offset="1" stop-color="#DA8517"/>
</linearGradient>
<linearGradient id="paint3_linear_1_248" x1="173.69" y1="243.845" x2="-57.8777" y2="-149.644" gradientUnits="userSpaceOnUse">
<stop stop-color="#FFC881"/>
<stop offset="1" stop-color="#DA8517"/>
</linearGradient>
<linearGradient id="paint4_linear_1_248" x1="164.349" y1="248.208" x2="-18.2604" y2="-169.742" gradientUnits="userSpaceOnUse">
<stop stop-color="#FFC881"/>
<stop offset="1" stop-color="#DA8517"/>
</linearGradient>
<linearGradient id="paint5_linear_1_248" x1="154.732" y1="251.557" x2="23.5964" y2="-184.789" gradientUnits="userSpaceOnUse">
<stop stop-color="#FFC881"/>
<stop offset="1" stop-color="#DA8517"/>
</linearGradient>
<linearGradient id="paint6_linear_1_248" x1="144.965" y1="253.866" x2="67.0713" y2="-194.561" gradientUnits="userSpaceOnUse">
<stop stop-color="#FFC881"/>
<stop offset="1" stop-color="#DA8517"/>
</linearGradient>
<linearGradient id="paint7_linear_1_248" x1="135.177" y1="255.126" x2="111.522" y2="-198.911" gradientUnits="userSpaceOnUse">
<stop stop-color="#FFC881"/>
<stop offset="1" stop-color="#DA8517"/>
</linearGradient>
<linearGradient id="paint8_linear_1_248" x1="125.499" y1="255.341" x2="156.296" y2="-197.77" gradientUnits="userSpaceOnUse">
<stop stop-color="#FFC881"/>
<stop offset="1" stop-color="#DA8517"/>
</linearGradient>
<linearGradient id="paint9_linear_1_248" x1="116.058" y1="254.534" x2="200.735" y2="-191.146" gradientUnits="userSpaceOnUse">
<stop stop-color="#FFC881"/>
<stop offset="1" stop-color="#DA8517"/>
</linearGradient>
<linearGradient id="paint10_linear_1_248" x1="106.979" y1="252.743" x2="244.191" y2="-179.126" gradientUnits="userSpaceOnUse">
<stop stop-color="#FFC881"/>
<stop offset="1" stop-color="#DA8517"/>
</linearGradient>
<linearGradient id="paint11_linear_1_248" x1="98.3799" y1="250.02" x2="286.028" y2="-161.874" gradientUnits="userSpaceOnUse">
<stop stop-color="#FFC881"/>
<stop offset="1" stop-color="#DA8517"/>
</linearGradient>
</defs>
</svg>
